<svg width="36" height="36" id="Слой_1" data-name="Слой 1" xmlns="http://www.w3.org/2000/svg" viewBox="0 0 36 36">
    <defs>
        <style>.cls-1{fill:#15fffb;}.cls-2{fill:none;stroke:#000;stroke-linecap:round;stroke-linejoin:round;}</style>
    </defs>
    <path class="cls-1" d="M17.89,1l-4.48,9.44L3.39,12l7.26,7.35L8.94,29.67l9-4.9,9,4.89L25.15,19.29l7.24-7.35-10-1.51Z"
          transform="translate(-0.41 -0.5)"/>
    <path class="cls-1" d="M6,21.1l-5.07.32.88,2.67Z" transform="translate(-0.41 -0.5)"/>
    <path class="cls-1" d="M29.83,20.83l5.08.32L34,23.82Z" transform="translate(-0.41 -0.5)"/>
    <path class="cls-1" d="M10.3,6.42,8.43,1.5,6.27,3.2Z" transform="translate(-0.41 -0.5)"/>
    <path class="cls-1" d="M25.77,6.7l4.14-3.07L27.8,1.85Z" transform="translate(-0.41 -0.5)"/>
    <path class="cls-1" d="M17.86,29.9,16.51,35h2.71Z" transform="translate(-0.41 -0.5)"/>
    <path class="cls-2" d="M17.86,1l-4.47,9.44L3.37,12l7.25,7.35L8.91,29.67l9-4.9,9,4.89L25.12,19.29l7.25-7.35-10-1.51Z"
          transform="translate(-0.41 -0.5)"/>
    <path class="cls-2" d="M17.87,29.9,16.51,35h2.71Z" transform="translate(-0.41 -0.5)"/>
    <path class="cls-2" d="M29.81,20.88l4.25,2.92.84-2.68Z" transform="translate(-0.41 -0.5)"/>
    <path class="cls-2" d="M6,21.1l-5.08.32.88,2.67Z" transform="translate(-0.41 -0.5)"/>
    <path class="cls-2" d="M25.77,6.7l4.14-3.07-2.1-1.78Z" transform="translate(-0.41 -0.5)"/>
    <path class="cls-2" d="M10.31,6.42,8.44,1.5,6.27,3.2Z" transform="translate(-0.41 -0.5)"/>
</svg>